<?xml version="1.0" encoding="utf-8"?>
<!-- Generator: Adobe Illustrator 15.0.0, SVG Export Plug-In  -->
<!DOCTYPE svg PUBLIC "-//W3C//DTD SVG 1.1//EN" "http://www.w3.org/Graphics/SVG/1.1/DTD/svg11.dtd" [
	<!ENTITY ns_flows "http://ns.adobe.com/Flows/1.0/">
]>
<svg version="1.1"
	 xmlns="http://www.w3.org/2000/svg" xmlns:xlink="http://www.w3.org/1999/xlink" xmlns:a="http://ns.adobe.com/AdobeSVGViewerExtensions/3.0/"
	 x="0px" y="0px" width="211px" height="211px" viewBox="141.477 35.741 211 211" enable-background="new 141.477 35.741 211 211"
	 xml:space="preserve">
<defs>
</defs>
<g>
	<defs>
		<circle id="SVGID_1_" cx="246.845" cy="141.109" r="105.368"/>
	</defs>
	<clipPath id="SVGID_3_">
		<use xlink:href="#SVGID_1_"  overflow="visible"/>
	</clipPath>
	<circle clip-path="url(#SVGID_3_)" fill="#8C8C8C" stroke="#FFFFFF" stroke-miterlimit="10" cx="198.5" cy="198.5" r="198"/>
	<path clip-path="url(#SVGID_3_)" stroke="#FFFFFF" stroke-miterlimit="10" d="M309.587,101.979c0,0,6.556,15.499,5.222,34.295
		c-1.333,18.796-6.642,30.923,0.179,33.349c6.821,2.425,10.82,13.742,9.154,23.849s7,19.808,10,18.999s-27.333,18.594-31,8.893
		s-59.666,3.233-61.333-8.489c-1.667-11.722,8.667-135.012,8.667-135.012"/>
	<path clip-path="url(#SVGID_3_)" stroke="#FFFFFF" stroke-miterlimit="10" d="M186.39,104.001c0,0-6.556,15.499-5.222,34.295
		c1.333,18.796,6.642,30.923-0.179,33.349c-6.821,2.425-10.82,13.742-9.154,23.849s-7,19.808-10,18.999s27.333,18.594,31,8.893
		s59.666,3.233,61.333-8.489c1.667-11.722-8.667-135.012-8.667-135.012"/>
	<path clip-path="url(#SVGID_3_)" fill="#EAEAEA" stroke="#FFFFFF" stroke-miterlimit="10" d="M296.833,148.197
		c0,5.262-0.048,24.549-20.381,29.549l-50.284,1.451c-18,0.666-27-21.707-27-28.334l-1.334-52.333c0-6.627,5.373-12,12-12h75
		c6.627,0,12,5.373,12,12V148.197z"/>
	<g clip-path="url(#SVGID_3_)">
		<defs>
			<path id="SVGID_2_" d="M296.833,148.197c0,5.262-0.049,24.549-20.382,29.549l-50.284,1.451c-18,0.666-27-21.707-27-28.334
				l-1.334-52.333c0-6.627,5.373-12,12-12h75c6.627,0,12,5.373,12,12V148.197z"/>
		</defs>
		<clipPath id="SVGID_4_">
			<use xlink:href="#SVGID_2_"  overflow="visible"/>
		</clipPath>
		<circle clip-path="url(#SVGID_4_)" fill="#939393" cx="287.99" cy="156.863" r="25.333"/>
		<circle clip-path="url(#SVGID_4_)" fill="#939393" cx="207.989" cy="161.819" r="25.333"/>
	</g>
	<circle clip-path="url(#SVGID_3_)" stroke="#FFFFFF" stroke-miterlimit="10" cx="224.835" cy="135.197" r="2.5"/>
	<circle clip-path="url(#SVGID_3_)" stroke="#FFFFFF" stroke-miterlimit="10" cx="268.882" cy="135.15" r="2.5"/>
	<path clip-path="url(#SVGID_3_)" stroke="#FFFFFF" stroke-miterlimit="10" d="M198.157,111.206c0,0,21.009-21.009,49.177-18.009
		s37.503,8.332,43.501,14.666s5.999,17.287,5.999,17.287s19.001-24.619,7.001-46.953s-80.281-38.191-110.333,0
		C177.501,98.53,190.479,107.882,198.157,111.206z"/>
	<rect x="239.663" y="176.53" clip-path="url(#SVGID_3_)" fill="#EAEAEA" width="15.342" height="18.031"/>
	<path clip-path="url(#SVGID_3_)" d="M228.968,112.862c-4.617,0.141-9.324,0.629-13.728,2.086c-2.057,0.68-1.176,3.941,0.897,3.256
		c4.137-1.369,8.493-1.834,12.831-1.966C231.14,116.173,231.146,112.796,228.968,112.862z"/>
	<path clip-path="url(#SVGID_3_)" d="M264.749,112.862c4.617,0.141,9.324,0.629,13.728,2.086c2.057,0.68,1.176,3.941-0.897,3.256
		c-4.137-1.369-8.493-1.834-12.831-1.966C262.577,116.173,262.571,112.796,264.749,112.862z"/>
	<path clip-path="url(#SVGID_3_)" fill="#010101" d="M296.797,124.054c-6.871-0.149-15.086-2.838-22.406-2.688
		c-10.454,0.214-18.074,3.585-27.036,3.436c-7.324-0.121-17.774-3.137-25.842-3.137c-8.065,0-23.151,0.896-24.197,2.688
		c-1.046,1.794,0.745,5.229,1.343,5.379c0.599,0.149,1.346,0.896,1.346,0.896c1.046,3.436,1.492,19.015,11.949,23.303
		c6.062,2.485,18.967,0.263,25.114-5.039c5.318-4.586,5.643-16.309,7.001-17.517c1.345-1.193,4.93-0.896,6.124,0.149
		c1.195,1.047,3.989,14.885,7.623,17.771c3.406,2.707,16.128,8.743,28.377,3.515c5.984-2.555,7.019-19.494,8.064-20.54
		c1.046-1.045,1.866-0.725,2.389-1.642C297.246,129.581,298.54,124.091,296.797,124.054z M235.314,147.205
		c-7.379,5.828-13.29,5.77-18.215,5.546c-9.857-0.447-16.2-17.794-9.777-26.159c1.807-2.351,30.706-4.187,32.772,3.735
		C240.858,133.255,239.582,143.837,235.314,147.205z M277.677,152.732c-4.929-0.056-12.192-0.729-17.924-5.078
		c-4.332-3.287-5.825-14.042-4.78-16.88c2.831-7.684,27.784-8.364,31.369-1.791S290.973,152.882,277.677,152.732z"/>
	
		<path clip-path="url(#SVGID_3_)" fill-rule="evenodd" clip-rule="evenodd" fill="#EAEAEA" stroke="#FFFFFF" stroke-miterlimit="10" d="
		M196.896,156.764c2.098-3.249,0.515-6.731-3.163-8.631c-5.08-2.622-10.438,1.575-14.046,2.373
		c1.954-8.096,15.196-19.366,13.597-26.091c-0.557-2.344-3.741-5.332-6.748-4.476c2.639-5.742-6.935-11.692-10.839-6.179
		c-2.864-7.361-13.123-3.161-12.669,4.02c-2.883-3.293-7.398-2.083-9.421,1.006c-1.558,2.379-1.191,5.819-1.325,8.485
		c-0.148,2.966-0.209,5.575-0.383,8.451c-0.411,6.754-4.735,12.044-4.331,17.406c0.014,0.003,0.027,0.007,0.041,0.012
		c-1.846,6.523,5.777,13.44,12.451,13.326c1.684,0.831,3.212,1.948,4.943,2.691c2,0.855,4.11,0.738,6.059-0.193
		c1.213-0.58,2.273-1.453,3.221-2.439c0.126-0.083,0.253-0.165,0.378-0.249c1.658-1.11,2.81-2.751,4.789-4.235
		C184.769,158.052,192.766,163.158,196.896,156.764z"/>
	<path clip-path="url(#SVGID_3_)" fill-rule="evenodd" clip-rule="evenodd" fill="#EAEAEA" d="M170.817,166.449
		c0,0,20.711,114.377,69.668,28.735l6.849,15.773c0,0-59.072,101.164-91.807-41.943l8.059-27.905l7.231,21.775"/>
	<path clip-path="url(#SVGID_3_)" d="M299.667,285.409c0,6.627-5.373,12-12,12H207c-6.627,0-12-5.373-12-12v-40.333
		c0-37.667,39.373-52.333,46-52.333h6.333c6.627,0,52.333,16,52.333,52.333V285.409z"/>
</g>
<path fill="#FFFFFF" d="M326.268,163.714c-9.362-8.022-23.763-6.632-32.101,3.101l-5.913,6.9c-3.462,4.041-7.503,3.825-10.455,3.669
	c-1.614-0.086-3.007-0.16-3.875,0.415c-0.175,0.115-0.217,0.219-0.229,0.35c-0.072,0.813,1.152,2.884,4.836,6.04
	c0.643,0.551,1.082,0.896,1.12,0.924l16.331,13.993c9.35,8.012,23.739,6.616,32.077-3.114
	C336.435,186.217,335.631,171.736,326.268,163.714z"/>
<text transform="matrix(1 0 0 1 298.5005 187.833)" font-family="'CourierNewPS-BoldMT'" font-size="21">hi</text>
</svg>
