<?xml version="1.0" encoding="utf-8"?>
<!-- Generator: Adobe Illustrator 15.0.0, SVG Export Plug-In  -->
<!DOCTYPE svg PUBLIC "-//W3C//DTD SVG 1.1//EN" "http://www.w3.org/Graphics/SVG/1.1/DTD/svg11.dtd" [
	<!ENTITY ns_flows "http://ns.adobe.com/Flows/1.0/">
]>
<svg version="1.1"
	 xmlns="http://www.w3.org/2000/svg" xmlns:xlink="http://www.w3.org/1999/xlink" xmlns:a="http://ns.adobe.com/AdobeSVGViewerExtensions/3.0/"
	 x="0px" y="0px" width="252px" height="252px" viewBox="0.001 0 252 252" enable-background="new 0.001 0 252 252"
	 xml:space="preserve">
<defs>
</defs>
<path fill="none" stroke="#000000" stroke-width="8" stroke-linecap="round" d="M30.516,4c51.803,0,103.606,0,155.409,0
	c0,38.852,0,77.705,0,116.557c-23.158,1.371-48.857,0.199-72.995,0.588c-1.365,2.757-0.202,8.04-0.588,11.773
	c6.894,0.367,15.271-0.748,21.192,0.589c0,2.747,0,5.495,0,8.242c-16.097,1.367-34.727,0.2-51.803,0.589c0-3.14,0-6.28,0-9.42
	c6.869,0,13.735,0,20.603,0c1.367-2.755,0.203-8.037,0.589-11.773c-24.331,0-48.664,0-72.995,0C30.32,82.292,29.142,41.871,30.516,4
	z"/>
<path fill="none" stroke="#000000" stroke-width="8" stroke-linecap="round" d="M4.614,151.168c68.876,0,137.751,0,206.625,0
	c0,20.016,0,40.03,0,60.045c-69.072,0-138.141,0-207.213,0c0-19.426,0-38.852,0-58.279C3.975,152.099,3.929,151.267,4.614,151.168z"
	/>
<path fill="none" stroke="#000000" stroke-width="8" stroke-linecap="round" d="M85.852,168.239c0,2.944,0,5.887,0,8.83
	c-17.072,0-34.142,0-51.214,0c0.38-2.758-0.771-7.049,0.588-8.83C52.101,168.239,68.976,168.239,85.852,168.239z"/>
</svg>
