<?xml version="1.0" encoding="utf-8"?>
<!-- Generator: Adobe Illustrator 15.0.0, SVG Export Plug-In  -->
<!DOCTYPE svg PUBLIC "-//W3C//DTD SVG 1.1//EN" "http://www.w3.org/Graphics/SVG/1.1/DTD/svg11.dtd" [
	<!ENTITY ns_flows "http://ns.adobe.com/Flows/1.0/">
]>
<svg version="1.1"
	 xmlns="http://www.w3.org/2000/svg" xmlns:xlink="http://www.w3.org/1999/xlink" xmlns:a="http://ns.adobe.com/AdobeSVGViewerExtensions/3.0/"
	 x="0px" y="0px" width="67px" height="280px" viewBox="-6.54 -6.778 67 280" enable-background="new -6.54 -6.778 67 280"
	 xml:space="preserve">
<defs>
</defs>
<path fill-rule="evenodd" clip-rule="evenodd" fill="none" stroke="#000000" stroke-width="12.0365" stroke-linecap="round" d="
	M7.397,210.926C5.417,151.335,5.76,90.65,7.224,30.992"/>
<path fill-rule="evenodd" clip-rule="evenodd" fill="none" stroke="#000000" stroke-width="11.6234" stroke-linecap="round" d="
	M7.224,30.992c-1.246-7.728-2.07-16.848,0.377-24.222c12.456-1.369,25.708-1.146,38.219-0.118c2.542,7.447,1.661,16.568,0.429,24.34
	"/>
<path fill-rule="evenodd" clip-rule="evenodd" fill="none" stroke="#000000" stroke-width="11.0224" stroke-linecap="round" d="
	M7.224,30.992c13.008,0,26.016,0,39.024,0"/>
<path fill-rule="evenodd" clip-rule="evenodd" fill="none" stroke="#000000" stroke-width="11.023" stroke-linecap="round" d="
	M7.397,210.926c12.866-0.552,25.813-0.566,38.678,0"/>
<path fill-rule="evenodd" clip-rule="evenodd" fill="none" stroke="#000000" stroke-width="12.0334" stroke-linecap="round" d="
	M46.075,210.926c1.979-59.591,1.636-120.275,0.173-179.934"/>
<path fill-rule="evenodd" clip-rule="evenodd" fill="none" stroke="#000000" stroke-width="10.8349" stroke-linecap="round" d="
	M7.397,210.926c2.266,13.127,9.282,27.653,19.294,36.897c10.078-9.187,17.205-23.724,19.384-36.897"/>
</svg>
